<?xml version="1.0" encoding="UTF-8"?>
<svg width="700pt" height="700pt" version="1.1" viewBox="0 0 700 700" xmlns="http://www.w3.org/2000/svg" xmlns:xlink="http://www.w3.org/1999/xlink">
 <g>
  <path fill="#FAD20A" d="m589.68 452.48-238-238c29.121-51.52 21.84-117.6-21.84-161.28-52.641-52.641-137.76-52.641-190.4 0-52.641 52.641-52.641 137.76 0 190.4 43.68 43.68 109.76 50.961 161.28 21.84l119.28 119.28-38.078 38.078c-5.6016 5.6016-5.6016 15.121 0 20.719l26.879 26.879c5.6016 5.6016 15.121 5.6016 20.719 0l38.078-38.078 23.52 23.52-38.078 38.078c-5.6016 5.6016-5.6016 15.121 0 20.719l26.879 26.879c5.6016 5.6016 15.121 5.6016 20.719 0l38.078-38.078c14 14 36.961 14 50.961 0 14-13.992 14-36.953 0-50.953zm-358.4-306.88c-14.559 14.559-38.641 14.559-53.199 0-14.559-14.559-14.559-38.641 0-53.199 14.559-14.559 38.641-14.559 53.199 0 15.117 14.559 15.117 38.078 0 53.199z"/>
 </g>
</svg>
