<svg height='40px' width='40px'  fill="#999" xmlns="http://www.w3.org/2000/svg" viewBox="0 0 48 48" x="0px" y="0px"><title>22-crow</title><g data-name="22-crow"><path d="M36,19c0-1.19153-1.10187-3.63751-2.0191-5.21588L9.92487,28H29C32.7041,28,36,22.9668,36,19Z"></path><path d="M48,16V5a5,5,0,0,0-5-5H42a5,5,0,0,0-5,5c-7,0-9,5-9,5h9v2l-1.29657.76624C36.74707,14.54871,38,17.29425,38,19c0,4.98242-4.01465,11-9,11H6.54047L1.78119,32.8125A4,4,0,0,0,0,36.14075v.40686L7.44531,32.168A1,1,0,0,1,8.55469,33.832L0,38.8642V42l13-8h9s.67175,2.66833,4.7345,3.64532L33.00049,46H33a1,1,0,0,0,0,2h4a1,1,0,0,0,0-2H35.49951L29.4856,37.98138C29.65869,37.98657,29.819,38,30,38a15.97,15.97,0,0,0,2.81732-.2442L39.00049,46H39a1,1,0,0,0,0,2h6a1,1,0,0,0,0-2H41.49951l-6.59534-8.79376C46.41846,33.28912,48,16,48,16ZM39.10547,6.44727a1,1,0,0,1,.44726-1.3418l4-2a1.00012,1.00012,0,0,1,.89454,1.78906l-4,2A1.15421,1.15421,0,0,1,39.10547,6.44727Z"></path></g></svg>